<?xml version="1.0" encoding="UTF-8"?>
<!DOCTYPE svg PUBLIC "-//W3C//DTD SVG 1.1//EN" "http://www.w3.org/Graphics/SVG/1.1/DTD/svg11.dtd">
<svg xmlns="http://www.w3.org/2000/svg" version="1.1" width="385px" height="385px" style="shape-rendering:geometricPrecision; text-rendering:geometricPrecision; image-rendering:optimizeQuality; fill-rule:evenodd; clip-rule:evenodd" xmlns:xlink="http://www.w3.org/1999/xlink">
<g><path style="opacity:0.937" fill="#00dada" d="M 28.5,25.5 C 80.5011,25.3333 132.501,25.5 184.5,26C 185.308,26.3076 185.975,26.8076 186.5,27.5C 187.662,79.7924 187.829,132.126 187,184.5C 186.692,185.308 186.192,185.975 185.5,186.5C 133.208,187.662 80.8743,187.829 28.5,187C 27.6919,186.692 27.0253,186.192 26.5,185.5C 25.338,133.208 25.1713,80.8743 26,28.5C 26.6979,27.3094 27.5313,26.3094 28.5,25.5 Z M 35.5,35.5 C 82.8333,35.5 130.167,35.5 177.5,35.5C 177.5,82.8333 177.5,130.167 177.5,177.5C 130.167,177.5 82.8333,177.5 35.5,177.5C 35.5,130.167 35.5,82.8333 35.5,35.5 Z"/></g>
<g><path style="opacity:0.97" fill="#00dada" d="M 203.5,25.5 C 255.834,25.3333 308.168,25.5 360.5,26C 361,26.5 361.5,27 362,27.5C 363.657,79.4171 363.991,131.417 363,183.5C 362.535,184.931 361.701,186.097 360.5,187C 308.167,187.667 255.833,187.667 203.5,187C 203,186.5 202.5,186 202,185.5C 201.333,132.833 201.333,80.1667 202,27.5C 202.717,26.9558 203.217,26.2891 203.5,25.5 Z M 211.5,35.5 C 258.5,35.5 305.5,35.5 352.5,35.5C 352.5,82.8333 352.5,130.167 352.5,177.5C 305.5,177.5 258.5,177.5 211.5,177.5C 211.5,130.167 211.5,82.8333 211.5,35.5 Z"/></g>
<g><path style="opacity:0.937" fill="#00dada" d="M 28.5,198.5 C 80.5011,198.333 132.501,198.5 184.5,199C 185.308,199.308 185.975,199.808 186.5,200.5C 187.662,252.792 187.829,305.126 187,357.5C 186.692,358.308 186.192,358.975 185.5,359.5C 133.208,360.662 80.8743,360.829 28.5,360C 27.6919,359.692 27.0253,359.192 26.5,358.5C 25.338,306.208 25.1713,253.874 26,201.5C 26.6979,200.309 27.5313,199.309 28.5,198.5 Z M 35.5,208.5 C 82.8333,208.5 130.167,208.5 177.5,208.5C 177.5,255.833 177.5,303.167 177.5,350.5C 130.167,350.5 82.8333,350.5 35.5,350.5C 35.5,303.167 35.5,255.833 35.5,208.5 Z"/></g>
<g><path style="opacity:0.97" fill="#00dada" d="M 203.5,198.5 C 255.834,198.333 308.168,198.5 360.5,199C 361,199.5 361.5,200 362,200.5C 363.657,252.417 363.991,304.417 363,356.5C 362.535,357.931 361.701,359.097 360.5,360C 308.167,360.667 255.833,360.667 203.5,360C 203,359.5 202.5,359 202,358.5C 201.333,305.833 201.333,253.167 202,200.5C 202.717,199.956 203.217,199.289 203.5,198.5 Z M 211.5,208.5 C 258.5,208.5 305.5,208.5 352.5,208.5C 352.5,255.833 352.5,303.167 352.5,350.5C 305.5,350.5 258.5,350.5 211.5,350.5C 211.5,303.167 211.5,255.833 211.5,208.5 Z"/></g>
</svg>
